<svg width="256" height="128" xmlns="http://www.w3.org/2000/svg">
  <!-- Row 1: Natural tiles -->
  <!-- 1: Grass -->
  <rect x="0" y="0" width="32" height="32" fill="#4a7c3f"/>
  <circle cx="8" cy="8" r="2" fill="#3d6935"/>
  <circle cx="24" cy="20" r="2" fill="#3d6935"/>
  <circle cx="16" cy="28" r="2" fill="#3d6935"/>
  
  <!-- 2: Path/Dirt -->
  <rect x="32" y="0" width="32" height="32" fill="#a88b5a"/>
  <circle cx="40" cy="8" r="3" fill="#9a7d4e"/>
  <circle cx="56" cy="24" r="2" fill="#9a7d4e"/>
  
  <!-- 3: Water -->
  <rect x="64" y="0" width="32" height="32" fill="#3a7ca5"/>
  <path d="M68 16 Q76 12 84 16 Q92 20 92 16" stroke="#4a8cb5" stroke-width="2" fill="none"/>
  
  <!-- 4: Stone/Wall -->
  <rect x="96" y="0" width="32" height="32" fill="#5a5a5a"/>
  <rect x="98" y="2" width="12" height="8" fill="#666"/>
  <rect x="112" y="2" width="12" height="8" fill="#555"/>
  <rect x="98" y="12" width="8" height="8" fill="#555"/>
  <rect x="108" y="12" width="14" height="8" fill="#666"/>
  <rect x="98" y="22" width="14" height="8" fill="#666"/>
  <rect x="114" y="22" width="8" height="8" fill="#555"/>
  
  <!-- 5: Wood Floor -->
  <rect x="128" y="0" width="32" height="32" fill="#8b6b3d"/>
  <line x1="128" y1="8" x2="160" y2="8" stroke="#7a5a2d" stroke-width="1"/>
  <line x1="128" y1="16" x2="160" y2="16" stroke="#7a5a2d" stroke-width="1"/>
  <line x1="128" y1="24" x2="160" y2="24" stroke="#7a5a2d" stroke-width="1"/>
  
  <!-- 6: Tree/Forest -->
  <rect x="160" y="0" width="32" height="32" fill="#2d5a2d"/>
  <circle cx="176" cy="16" r="12" fill="#1d4a1d"/>
  
  <!-- 7: Sand -->
  <rect x="192" y="0" width="32" height="32" fill="#e8d4a8"/>
  <circle cx="200" cy="10" r="1" fill="#d8c498"/>
  <circle cx="216" cy="22" r="1" fill="#d8c498"/>
  
  <!-- 8: Dark Grass (forest floor) -->
  <rect x="224" y="0" width="32" height="32" fill="#3a6a2f"/>
  <circle cx="232" cy="12" r="2" fill="#2d5a24"/>
  <circle cx="248" cy="24" r="2" fill="#2d5a24"/>
  
  <!-- Row 2: Building tiles -->
  <!-- 9: Wall Top -->
  <rect x="0" y="32" width="32" height="32" fill="#6a6a6a"/>
  <rect x="0" y="32" width="32" height="8" fill="#7a7a7a"/>
  
  <!-- 10: Door -->
  <rect x="32" y="32" width="32" height="32" fill="#6b4423"/>
  <rect x="40" y="36" width="16" height="24" fill="#5a3418"/>
  <circle cx="52" cy="52" r="2" fill="#c4a35a"/>
  
  <!-- 11: Window -->
  <rect x="64" y="32" width="32" height="32" fill="#6a6a6a"/>
  <rect x="72" y="40" width="16" height="16" fill="#87ceeb"/>
  <line x1="80" y1="40" x2="80" y2="56" stroke="#5a5a5a" stroke-width="2"/>
  <line x1="72" y1="48" x2="88" y2="48" stroke="#5a5a5a" stroke-width="2"/>
  
  <!-- 12: Roof -->
  <rect x="96" y="32" width="32" height="32" fill="#8b4513"/>
  <line x1="96" y1="40" x2="128" y2="40" stroke="#7a3a0a" stroke-width="1"/>
  <line x1="96" y1="48" x2="128" y2="48" stroke="#7a3a0a" stroke-width="1"/>
  <line x1="96" y1="56" x2="128" y2="56" stroke="#7a3a0a" stroke-width="1"/>
  
  <!-- 13: Carpet/Rug -->
  <rect x="128" y="32" width="32" height="32" fill="#8b6b3d"/>
  <rect x="132" y="36" width="24" height="24" fill="#8b2252"/>
  <rect x="136" y="40" width="16" height="16" fill="#a03262"/>
  
  <!-- 14: Fence Horizontal -->
  <rect x="160" y="32" width="32" height="32" fill="#4a7c3f"/>
  <rect x="160" y="44" width="32" height="4" fill="#8b6b3d"/>
  <rect x="164" y="40" width="4" height="16" fill="#8b6b3d"/>
  <rect x="180" y="40" width="4" height="16" fill="#8b6b3d"/>
  
  <!-- 15: Fence Vertical -->
  <rect x="192" y="32" width="32" height="32" fill="#4a7c3f"/>
  <rect x="204" y="32" width="4" height="32" fill="#8b6b3d"/>
  <rect x="200" y="36" width="12" height="4" fill="#8b6b3d"/>
  <rect x="200" y="52" width="12" height="4" fill="#8b6b3d"/>
  
  <!-- 16: Bridge -->
  <rect x="224" y="32" width="32" height="32" fill="#3a7ca5"/>
  <rect x="228" y="36" width="24" height="24" fill="#8b6b3d"/>
  <line x1="228" y1="44" x2="252" y2="44" stroke="#7a5a2d" stroke-width="1"/>
  <line x1="228" y1="52" x2="252" y2="52" stroke="#7a5a2d" stroke-width="1"/>
  
  <!-- Row 3: Objects/Decorations -->
  <!-- 17: Chest Closed -->
  <rect x="0" y="64" width="32" height="32" fill="transparent"/>
  <rect x="4" y="72" width="24" height="16" fill="#8b6b3d" rx="2"/>
  <rect x="4" y="72" width="24" height="8" fill="#a87b4d" rx="2"/>
  <rect x="14" y="76" width="4" height="4" fill="#c4a35a"/>
  
  <!-- 18: Chest Open -->
  <rect x="32" y="64" width="32" height="32" fill="transparent"/>
  <rect x="36" y="76" width="24" height="12" fill="#8b6b3d" rx="2"/>
  <rect x="36" y="68" width="24" height="10" fill="#a87b4d" rx="2"/>
  <circle cx="48" cy="80" r="3" fill="#ffd700"/>
  <circle cx="52" cy="82" r="2" fill="#ffd700"/>
  <circle cx="44" cy="82" r="2" fill="#ffd700"/>
  
  <!-- 19: Sign -->
  <rect x="64" y="64" width="32" height="32" fill="transparent"/>
  <rect x="78" y="80" width="4" height="12" fill="#6b4423"/>
  <rect x="68" y="68" width="24" height="14" fill="#8b6b3d"/>
  <rect x="70" y="70" width="20" height="10" fill="#a87b4d"/>
  
  <!-- 20: Portal -->
  <rect x="96" y="64" width="32" height="32" fill="transparent"/>
  <ellipse cx="112" cy="80" rx="12" ry="14" fill="#6a0dad"/>
  <ellipse cx="112" cy="80" rx="8" ry="10" fill="#9932cc"/>
  <ellipse cx="112" cy="80" rx="4" ry="6" fill="#da70d6"/>
  
  <!-- 21: Fountain -->
  <rect x="128" y="64" width="32" height="32" fill="transparent"/>
  <ellipse cx="144" cy="86" rx="14" ry="8" fill="#5a5a5a"/>
  <ellipse cx="144" cy="84" rx="10" ry="6" fill="#3a7ca5"/>
  <rect x="142" y="70" width="4" height="14" fill="#6a6a6a"/>
  <circle cx="144" cy="68" r="3" fill="#87ceeb"/>
  
  <!-- 22: Lamp Post -->
  <rect x="160" y="64" width="32" height="32" fill="transparent"/>
  <rect x="174" y="76" width="4" height="16" fill="#4a4a4a"/>
  <rect x="170" y="70" width="12" height="8" fill="#3a3a3a"/>
  <rect x="172" y="72" width="8" height="4" fill="#ffff88"/>
  
  <!-- 23: Bench -->
  <rect x="192" y="64" width="32" height="32" fill="transparent"/>
  <rect x="196" y="80" width="24" height="6" fill="#8b6b3d"/>
  <rect x="198" y="76" width="20" height="4" fill="#7a5a2d"/>
  <rect x="198" y="86" width="4" height="6" fill="#6b4423"/>
  <rect x="214" y="86" width="4" height="6" fill="#6b4423"/>
  
  <!-- 24: Flower Patch -->
  <rect x="224" y="64" width="32" height="32" fill="#4a7c3f"/>
  <circle cx="232" cy="76" r="3" fill="#ff6b6b"/>
  <circle cx="244" cy="72" r="3" fill="#ffeb3b"/>
  <circle cx="238" cy="84" r="3" fill="#e91e63"/>
  <circle cx="250" cy="80" r="3" fill="#2196f3"/>
  
  <!-- Row 4: More objects -->
  <!-- 25: Tree Stump -->
  <rect x="0" y="96" width="32" height="32" fill="transparent"/>
  <ellipse cx="16" cy="116" rx="12" ry="8" fill="#5a3a1a"/>
  <ellipse cx="16" cy="112" rx="10" ry="6" fill="#6b4423"/>
  <circle cx="14" cy="112" r="2" fill="#5a3a1a"/>
  <circle cx="18" cy="110" r="1" fill="#5a3a1a"/>
  
  <!-- 26: Rock -->
  <rect x="32" y="96" width="32" height="32" fill="transparent"/>
  <ellipse cx="48" cy="116" rx="12" ry="8" fill="#6a6a6a"/>
  <ellipse cx="46" cy="112" rx="8" ry="6" fill="#7a7a7a"/>
  
  <!-- 27: Bush -->
  <rect x="64" y="96" width="32" height="32" fill="transparent"/>
  <ellipse cx="80" cy="116" rx="14" ry="10" fill="#2d5a2d"/>
  <ellipse cx="76" cy="112" rx="8" ry="6" fill="#3d6a3d"/>
  <ellipse cx="84" cy="110" rx="6" height="4" fill="#4d7a4d"/>
  
  <!-- 28: Well -->
  <rect x="96" y="96" width="32" height="32" fill="transparent"/>
  <ellipse cx="112" cy="116" rx="12" ry="8" fill="#5a5a5a"/>
  <ellipse cx="112" cy="112" rx="8" ry="5" fill="#1a3a5a"/>
  <rect x="108" y="100" width="8" height="12" fill="#5a5a5a"/>
  <rect x="106" y="98" width="12" height="4" fill="#6a4a2a"/>
  
  <!-- 29: Barrel -->
  <rect x="128" y="96" width="32" height="32" fill="transparent"/>
  <ellipse cx="144" cy="118" rx="10" ry="6" fill="#6b4423"/>
  <rect x="134" y="102" width="20" height="16" fill="#8b6b3d"/>
  <ellipse cx="144" cy="102" rx="10" ry="5" fill="#a87b4d"/>
  <line x1="136" y1="106" x2="136" y2="118" stroke="#5a3a1a" stroke-width="2"/>
  <line x1="152" y1="106" x2="152" y2="118" stroke="#5a3a1a" stroke-width="2"/>
  
  <!-- 30: Crate -->
  <rect x="160" y="96" width="32" height="32" fill="transparent"/>
  <rect x="166" y="102" width="20" height="20" fill="#a87b4d"/>
  <line x1="166" y1="112" x2="186" y2="112" stroke="#8b6b3d" stroke-width="2"/>
  <line x1="176" y1="102" x2="176" y2="122" stroke="#8b6b3d" stroke-width="2"/>
  
  <!-- 31: NPC Marker -->
  <rect x="192" y="96" width="32" height="32" fill="transparent"/>
  <circle cx="208" cy="112" r="10" fill="#4a90d9"/>
  <circle cx="208" cy="108" r="4" fill="#ffd4b8"/>
  <rect x="202" y="112" width="12" height="10" fill="#4a90d9"/>
  
  <!-- 32: Empty/Transparent -->
  <rect x="224" y="96" width="32" height="32" fill="transparent"/>
</svg>
